<mxfile host="app.diagrams.net" modified="2021-04-18T19:25:41.055Z" agent="5.0 (Windows NT 10.0; Win64; x64) AppleWebKit/537.36 (KHTML, like Gecko) Chrome/90.0.4430.72 Safari/537.36" etag="U2bSHpyn7ze9gUoUxHGQ" version="14.6.1" type="github">
  <diagram id="R2lEEEUBdFMjLlhIrx00" name="Page-1">
    <mxGraphModel dx="718" dy="402" grid="1" gridSize="10" guides="1" tooltips="1" connect="1" arrows="0" fold="1" page="1" pageScale="1" pageWidth="850" pageHeight="1100" math="0" shadow="0" extFonts="Permanent Marker^https://fonts.googleapis.com/css?family=Permanent+Marker">
      <root>
        <mxCell id="0" />
        <mxCell id="1" parent="0" />
        <mxCell id="tU6mDYQt_kNPIH_6yWZQ-1" value="UsuÃ¡rio" style="rounded=0;whiteSpace=wrap;html=1;" vertex="1" parent="1">
          <mxGeometry x="377.5" y="170" width="120" height="60" as="geometry" />
        </mxCell>
        <mxCell id="tU6mDYQt_kNPIH_6yWZQ-2" value="Nome" style="ellipse;whiteSpace=wrap;html=1;" vertex="1" parent="1">
          <mxGeometry x="250" y="290" width="65" height="40" as="geometry" />
        </mxCell>
        <mxCell id="tU6mDYQt_kNPIH_6yWZQ-3" value="Id" style="ellipse;whiteSpace=wrap;html=1;" vertex="1" parent="1">
          <mxGeometry x="325" y="290" width="65" height="40" as="geometry" />
        </mxCell>
        <mxCell id="tU6mDYQt_kNPIH_6yWZQ-4" value="Email" style="ellipse;whiteSpace=wrap;html=1;" vertex="1" parent="1">
          <mxGeometry x="405" y="290" width="65" height="40" as="geometry" />
        </mxCell>
        <mxCell id="tU6mDYQt_kNPIH_6yWZQ-5" value="Medidas" style="ellipse;whiteSpace=wrap;html=1;" vertex="1" parent="1">
          <mxGeometry x="480" y="290" width="65" height="40" as="geometry" />
        </mxCell>
        <mxCell id="tU6mDYQt_kNPIH_6yWZQ-34" value="Lista de Treinos (vetor de treinos)" style="ellipse;whiteSpace=wrap;html=1;" vertex="1" parent="1">
          <mxGeometry x="560" y="280" width="70" height="60" as="geometry" />
        </mxCell>
        <mxCell id="tU6mDYQt_kNPIH_6yWZQ-36" value="" style="endArrow=none;html=1;strokeColor=#000000;exitX=1;exitY=0;exitDx=0;exitDy=0;entryX=0;entryY=1;entryDx=0;entryDy=0;" edge="1" parent="1" source="tU6mDYQt_kNPIH_6yWZQ-2" target="tU6mDYQt_kNPIH_6yWZQ-1">
          <mxGeometry width="50" height="50" relative="1" as="geometry">
            <mxPoint x="470" y="360" as="sourcePoint" />
            <mxPoint x="520" y="310" as="targetPoint" />
          </mxGeometry>
        </mxCell>
        <mxCell id="tU6mDYQt_kNPIH_6yWZQ-37" value="" style="endArrow=none;html=1;strokeColor=#000000;exitX=1;exitY=0;exitDx=0;exitDy=0;entryX=0.25;entryY=1;entryDx=0;entryDy=0;" edge="1" parent="1" source="tU6mDYQt_kNPIH_6yWZQ-3" target="tU6mDYQt_kNPIH_6yWZQ-1">
          <mxGeometry width="50" height="50" relative="1" as="geometry">
            <mxPoint x="470" y="360" as="sourcePoint" />
            <mxPoint x="520" y="310" as="targetPoint" />
          </mxGeometry>
        </mxCell>
        <mxCell id="tU6mDYQt_kNPIH_6yWZQ-38" value="" style="endArrow=none;html=1;strokeColor=#000000;exitX=0.5;exitY=0;exitDx=0;exitDy=0;entryX=0.5;entryY=1;entryDx=0;entryDy=0;" edge="1" parent="1" source="tU6mDYQt_kNPIH_6yWZQ-4" target="tU6mDYQt_kNPIH_6yWZQ-1">
          <mxGeometry width="50" height="50" relative="1" as="geometry">
            <mxPoint x="470" y="360" as="sourcePoint" />
            <mxPoint x="520" y="310" as="targetPoint" />
          </mxGeometry>
        </mxCell>
        <mxCell id="tU6mDYQt_kNPIH_6yWZQ-39" value="" style="endArrow=none;html=1;strokeColor=#000000;entryX=0;entryY=0;entryDx=0;entryDy=0;exitX=0.75;exitY=1;exitDx=0;exitDy=0;" edge="1" parent="1" source="tU6mDYQt_kNPIH_6yWZQ-1" target="tU6mDYQt_kNPIH_6yWZQ-5">
          <mxGeometry width="50" height="50" relative="1" as="geometry">
            <mxPoint x="470" y="360" as="sourcePoint" />
            <mxPoint x="520" y="310" as="targetPoint" />
          </mxGeometry>
        </mxCell>
        <mxCell id="tU6mDYQt_kNPIH_6yWZQ-40" value="" style="endArrow=none;html=1;strokeColor=#000000;entryX=0;entryY=0;entryDx=0;entryDy=0;exitX=1;exitY=1;exitDx=0;exitDy=0;" edge="1" parent="1" source="tU6mDYQt_kNPIH_6yWZQ-1" target="tU6mDYQt_kNPIH_6yWZQ-34">
          <mxGeometry width="50" height="50" relative="1" as="geometry">
            <mxPoint x="470" y="360" as="sourcePoint" />
            <mxPoint x="520" y="310" as="targetPoint" />
          </mxGeometry>
        </mxCell>
        <mxCell id="tU6mDYQt_kNPIH_6yWZQ-41" value="" style="endArrow=none;html=1;strokeColor=#000000;exitX=0;exitY=0.5;exitDx=0;exitDy=0;" edge="1" parent="1" source="tU6mDYQt_kNPIH_6yWZQ-1" target="tU6mDYQt_kNPIH_6yWZQ-42">
          <mxGeometry width="50" height="50" relative="1" as="geometry">
            <mxPoint x="380" y="320" as="sourcePoint" />
            <mxPoint x="300" y="200" as="targetPoint" />
          </mxGeometry>
        </mxCell>
        <mxCell id="tU6mDYQt_kNPIH_6yWZQ-42" value="Telefone" style="ellipse;whiteSpace=wrap;html=1;" vertex="1" parent="1">
          <mxGeometry x="240" y="180" width="60" height="37.5" as="geometry" />
        </mxCell>
      </root>
    </mxGraphModel>
  </diagram>
</mxfile>
